:SAMPLES-PER-SECOND 30
:FULLY-SPECIFIED
:DEGREES
167
root  15.11013301 36.81311119 -8.076044518 -2.966710091 -59.21310043 -1.25951004
lowerback  11.54500008 2.136800051 -2.718600035
upperback  2.432420015 2.347249985 -1.924299955
thorax  -3.951740026 1.152009964 -0.8195620179
lowerneck  -8.528220177 11.45660019 -7.226809978
upperneck  12.78639984 16.45490074 -0.609062016
head  4.727789879 7.625860214 1.920349956
lclavicle  0 -9.442270133e-015 7.951389973e-016
lhumerus  -9.228650093 2.3285501 70.41989899
lradius  3.033946661e-031 -1.806657603e-031 149.227005
lwrist  -7.062250077e-031 -0 -3.46559
lhand  -1.496451383e-031 -27.76390076 20.11240005
lfingers  90 7.125020027 -90
lthumb  89.89689403 5.08795885 91.16245106
rclavicle  0 -9.442270133e-015 7.951389973e-016
rhumerus  -22.77490044 32.41080093 -73.50309753
rradius  -2.525908812e-031 2.467514683e-031 135.6699982
rwrist  0 -1.765562519e-031 -8.309329987
rhand  -7.920061211e-032 -33.2840004 9.303460121
rfingers  -90 -7.125020027 -90
rthumb  -92.93752616 -24.25625642 -97.11982154
rfemur  -4.390299797 18.40810013 7.866680145
rtibia  -0 0 55.61029816
rfoot  -0 -26.98089981 -13.9520998
rtoes  5.373923086 19.29304026 -105.8922705
lfemur  -25.05730057 -0.9645439982 5.892290115
ltibia  -0 0 51.95660019
lfoot  4.469377308e-032 -9.036439896 1.348549962
ltoes  -4.250644065 -19.5611806 -102.515957
168
root  14.95091145 36.76311163 -7.871244085 -1.047389984 -56.32120132 -3.341320038
lowerback  10.84799957 1.849789977 -2.460059881
upperback  2.312920094 2.05230999 -1.563040018
thorax  -3.69411993 1.010370016 -0.5235620141
lowerneck  -8.935290337 11.26669979 -7.608510017
upperneck  13.05690002 16.22550011 0.005564840045
head  4.801070213 7.525149822 2.176049948
lclavicle  0 -9.442270133e-015 7.951389973e-016
lhumerus  -10.64920044 0.6907169819 72.67120361
lradius  3.039826888e-031 -1.796746095e-031 149.4140015
lwrist  -1.059337512e-030 -3.531125038e-031 -3.934900045
lhand  -1.496451383e-031 -27.76390076 20.11240005
lfingers  90 7.125020027 -90
lthumb  89.89689403 5.08795885 91.16245106
rclavicle  0 -9.442270133e-015 7.951389973e-016
rhumerus  -26.34280014 32.46049881 -73.52870178
rradius  -2.526468629e-031 2.466941488e-031 135.6829987
rwrist  7.062250077e-031 -0 -8.380720139
rhand  -7.920061211e-032 -33.2840004 9.303460121
rfingers  -90 -7.125020027 -90
rthumb  -92.93752616 -24.25625642 -97.11982154
rfemur  -3.020109892 16.96949959 9.726579666
rtibia  -0 0 55.50979996
rfoot  -0 -26.24189949 -15.43980026
rtoes  5.373923086 19.29304026 -105.8922705
lfemur  -26.75110054 -1.402959943 6.435120106
ltibia  -0 0 52.66949844
lfoot  4.479977409e-032 -9.852370262 1.51067996
ltoes  -4.250644065 -19.5611806 -102.515957
169
root  14.7708217 36.75711024 -7.679400106 -0.04220309854 -53.18270111 -4.536630154
lowerback  10.31140041 1.674589992 -2.746949911
upperback  2.19866991 1.825139999 -1.337489963
thorax  -3.530420065 0.9048500061 -0.08308149874
lowerneck  -8.802740097 11.14620018 -7.211780071
upperneck  13.07929993 15.98040009 0.1893589944
head  4.807799816 7.440030098 2.157289982
lclavicle  0 -9.442270133e-015 7.951389973e-016
lhumerus  -11.59449959 -1.171959996 74.85140228
lradius  3.028636253e-031 -1.815545781e-031 149.0590057
lwrist  -1.059337512e-030 -3.531125038e-031 -3.556999922
lhand  -1.496451383e-031 -27.76390076 20.11240005
lfingers  90 7.125020027 -90
lthumb  89.89689403 5.08795885 91.16245106
rclavicle  0 -9.442270133e-015 7.951389973e-016
rhumerus  -29.86499977 32.18989944 -73.57820129
rradius  -2.519785726e-031 2.473767154e-031 135.5279999
rwrist  7.062250077e-031 -0 -7.908130169
rhand  -7.920061211e-032 -33.2840004 9.303460121
rfingers  -90 -7.125020027 -90
rthumb  -92.93752616 -24.25625642 -97.11982154
rfemur  -1.424029946 15.59780025 11.40909958
rtibia  -0 0 55.20240021
rfoot  -0 -24.73189926 -17.54809952
rtoes  5.373923086 19.29304026 -105.8922705
lfemur  -28.24559975 -2.093470097 6.646110058
ltibia  -0 0 52.98189926
lfoot  4.488990641e-032 -10.49409962 1.680999994
ltoes  -4.250644065 -19.5611806 -102.515957
170
root  14.56239956 36.77889005 -7.471110877 0.4484759867 -49.81470108 -5.213669777
lowerback  9.842359543 1.584939957 -3.27335
upperback  2.009860039 1.675529957 -1.285660028
thorax  -3.480659962 0.8400040269 0.2947820127
lowerneck  -8.143870354 10.92549992 -6.591609955
upperneck  12.85620022 15.51309967 0.4015620053
head  4.672810078 7.274600029 2.06072998
lclavicle  0 -9.442270133e-015 7.951389973e-016
lhumerus  -12.4399004 -3.134710073 76.91190338
lradius  3.007069626e-031 -1.851047353e-031 148.3849945
lwrist  -3.531125038e-031 -3.531125038e-031 -2.413249969
lhand  -1.496451383e-031 -27.76390076 20.11240005
lfingers  90 7.125020027 -90
lthumb  89.89689403 5.08795885 91.16245106
rclavicle  0 -9.442270133e-015 7.951389973e-016
rhumerus  -33.67919922 31.57749939 -73.78600311
rradius  -2.515204704e-031 2.478424768e-031 135.4219971
rwrist  7.062250077e-031 -1.765562519e-031 -7.531099796
rhand  -7.920061211e-032 -33.2840004 9.303460121
rfingers  -90 -7.125020027 -90
rthumb  -92.93752616 -24.25625642 -97.11982154
rfemur  0.4625360072 14.56110001 12.94769955
rtibia  -0 0 54.66189957
rfoot  -0 -23.83959961 -18.37529945
rtoes  5.373923086 19.29304026 -105.8922705
lfemur  -29.52009964 -3.051719904 6.698910236
ltibia  -0 0 52.85340118
lfoot  4.49504876e-032 -10.90310001 1.508069992
ltoes  -4.250644065 -19.5611806 -102.515957
